<svg xmlns="http://www.w3.org/2000/svg" xmlns:xlink="http://www.w3.org/1999/xlink" viewBox="0,0,256,256" width="22px" height="22px" fill-rule="nonzero"><g fill="#fffefe" fill-rule="nonzero" stroke="none" stroke-width="1" stroke-linecap="butt" stroke-linejoin="miter" stroke-miterlimit="10" stroke-dasharray="" stroke-dashoffset="0" font-family="none" font-weight="none" font-size="none" text-anchor="none" style="mix-blend-mode: normal"><g transform="scale(10.66667,10.66667)"><path d="M6,2c-1.09425,0 -2,0.90575 -2,2v16c0,1.09426 0.90575,2 2,2h12c1.09426,0 2,-0.90574 2,-2v-12l-6,-6zM6,4h7v5h5v11h-12z"></path></g></g><g fill="#ffffff" fill-rule="nonzero" stroke="none" stroke-width="1" stroke-linecap="butt" stroke-linejoin="miter" stroke-miterlimit="10" stroke-dasharray="" stroke-dashoffset="0" font-family="none" font-weight="none" font-size="none" text-anchor="none" style="mix-blend-mode: normal"><g><path d="M109.095,138.555v4.89h-12v8.13h14.08v5.02h-20.33v-30.34h20.29v5.07h-14.04v7.23zM119.325,134.055l3.71,6.72l3.79,-6.72h6.44l-6.42,11.04l6.69,11.5h-6.46l-4.02,-7.09l-4,7.09h-6.48l6.69,-11.5l-6.4,-11.04zM146.115,157.005v0c-3.30667,0 -5.99667,-1.01333 -8.07,-3.04c-2.08,-2.02667 -3.12,-4.72667 -3.12,-8.1v0v-0.59c0,-2.26 0.43667,-4.28333 1.31,-6.07c0.88,-1.78667 2.12,-3.16 3.72,-4.12c1.60667,-0.96667 3.43667,-1.45 5.49,-1.45v0c3.08667,0 5.51333,0.97333 7.28,2.92c1.77333,1.94 2.66,4.69667 2.66,8.27v0v2.45h-14.35c0.19333,1.47333 0.78,2.65667 1.76,3.55c0.98,0.88667 2.22,1.33 3.72,1.33v0c2.31333,0 4.12333,-0.84 5.43,-2.52v0l2.96,3.31c-0.9,1.28 -2.12333,2.27667 -3.67,2.99c-1.54,0.71333 -3.24667,1.07 -5.12,1.07zM145.425,138.505v0c-1.19333,0 -2.16,0.40333 -2.9,1.21c-0.74667,0.80667 -1.22333,1.96 -1.43,3.46v0h8.37v-0.48c-0.02667,-1.33333 -0.38667,-2.36333 -1.08,-3.09c-0.69333,-0.73333 -1.68,-1.1 -2.96,-1.1zM165.155,124.595v32h-6.04v-32z"></path></g></g></svg>