<svg xmlns="http://www.w3.org/2000/svg" xmlns:xlink="http://www.w3.org/1999/xlink" viewBox="0,0,256,256" width="20px" height="20px" fill-rule="nonzero"><g fill="none" fill-rule="nonzero" stroke="none" stroke-width="1" stroke-linecap="butt" stroke-linejoin="miter" stroke-miterlimit="10" stroke-dasharray="" stroke-dashoffset="0" font-family="none" font-weight="none" font-size="none" text-anchor="none" style="mix-blend-mode: normal"><g transform="scale(5.33333,5.33333)"><path d="M39,16v25c0,1.105 -0.895,2 -2,2h-26c-1.105,0 -2,-0.895 -2,-2v-34c0,-1.105 0.895,-2 2,-2h17z" fill="#ffffff"></path><path d="M28,5v9c0,1.105 0.895,2 2,2h9z" fill="#1d1d1d"></path><path d="M16.738,26.99v2.531h-1.655v-7.348h2.592c1.852,0 2.777,0.781 2.777,2.342c0,0.738 -0.265,1.335 -0.797,1.791c-0.531,0.456 -1.241,0.684 -2.129,0.684zM16.738,23.445v2.29h0.651c0.882,0 1.322,-0.386 1.322,-1.159c0,-0.754 -0.44,-1.132 -1.322,-1.132l-0.651,0.001z" fill="#1d1d1d"></path><path d="M21.528,29.521v-7.348h2.603c2.61,0 3.914,1.194 3.914,3.581c0,1.145 -0.356,2.058 -1.068,2.741c-0.712,0.684 -1.661,1.025 -2.846,1.025h-2.603zM23.183,23.521v4.657h0.82c0.717,0 1.279,-0.215 1.688,-0.645c0.408,-0.43 0.612,-1.016 0.612,-1.758c0,-0.7 -0.202,-1.251 -0.606,-1.652c-0.405,-0.402 -0.973,-0.602 -1.704,-0.602z" fill="#1d1d1d"></path><path d="M33.514,23.521h-2.593v1.803h2.383v1.343h-2.383v2.854h-1.655v-7.348h4.248z" fill="#1d1d1d"></path></g></g></svg>