<svg xmlns="http://www.w3.org/2000/svg" xmlns:xlink="http://www.w3.org/1999/xlink" viewBox="0,0,256,256" width="22px" height="22px" fill-rule="nonzero"><g fill="#fffefe" fill-rule="nonzero" stroke="none" stroke-width="1" stroke-linecap="butt" stroke-linejoin="miter" stroke-miterlimit="10" stroke-dasharray="" stroke-dashoffset="0" font-family="none" font-weight="none" font-size="none" text-anchor="none" style="mix-blend-mode: normal"><g transform="scale(10.66667,10.66667)"><path d="M6,2c-1.09425,0 -2,0.90575 -2,2v5c-1.105,0 -2,0.895 -2,2v5c0,1.105 0.895,2 2,2v2c0,1.09426 0.90575,2 2,2h12c1.09426,0 2,-0.90574 2,-2v-13l-5,-5zM6,4h8v4h4v1h-12zM4,11h1.5c0.828,0 1.5,0.672 1.5,1.5c0,0.828 -0.672,1.5 -1.5,1.5h-0.5v2h-1zM13,11h3v1h-2v1h1.59961v1h-1.59961v2h-1zM8,11.02344h1.62891c1.582,0 2.37109,0.95147 2.37109,2.10547v0.77149c0,1.168 -0.79077,2.09961 -2.38477,2.09961h-1.61523zM5,12v1h0.5c0.276,0 0.5,-0.224 0.5,-0.5c0,-0.276 -0.224,-0.5 -0.5,-0.5zM9,12.02344v2.97656h0.61523c0.632,0 1.38477,-0.19161 1.38477,-1.09961v-0.77149c0,-0.914 -0.74509,-1.10547 -1.37109,-1.10547zM6,18h12v2h-12z"></path></g></g></svg>